# xmcd CD database file
#
# Track frame offsets:
#	150
#	12007
#	23295
#	38650
#	49380
#	62650
#	73837
#	83304
#	103201
#	113419
#	122806
#	137724
#	149501
#	159206
#	172586
#	188211
#	201249
#	214479
#	230991
#	245856
#	270621
#	285024
#	295064
#	307816
#	320676
#
# Disc length: 4581 seconds
#
# Revision: 0
# Processed by: cddbd v1.5.1PL0 Copyright (c) Steve Scherf et al.
# Submitted via: Feurio! 1.68 - http://www.feurio.com
#
DISCID=6011e319
DTITLE=J. J. Cale - Any Way The Wind Blows - The Anthology 1970 - 1979
DYEAR=1900
DGENRE=
TTITLE0=JJ Cale - Call Me The Breeze
TTITLE1=JJ Cale - Crazy Mama
TTITLE2=JJ Cale - Magnolia
TTITLE3=JJ Cale - After Midnight
TTITLE4=JJ Cale - Lies
TTITLE5=JJ Cale - Changes
TTITLE6=JJ Cale - If You're Ever in Oklahoma
TTITLE7=JJ Cale - Midnight In Memphis
TTITLE8=JJ Cale - Cajun Moon
TTITLE9=JJ Cale - Rock and Roll Records
TTITLE10=JJ Cale - Any Way The Wind Blows
TTITLE11=JJ Cale - Crying
TTITLE12=JJ Cale - Everlovin' Woman
TTITLE13=JJ Cale - I Got The Same Old Blues
TTITLE14=JJ Cale - Woke Up This Morning
TTITLE15=JJ Cale - Cocaine
TTITLE16=JJ Cale - Woman That Got Away
TTITLE17=JJ Cale - Ride Me High
TTITLE18=JJ Cale - Hey Baby
TTITLE19=JJ Cale - Durangoc (live)
TTITLE20=JJ Cale - I'll Make Love To You Anytime
TTITLE21=JJ Cale - Don't Cry Sister
TTITLE22=JJ Cale - Thirteen Days
TTITLE23=JJ Cale - Things Ain't That Simple (live)
TTITLE24=JJ Cale - Sensitive Kind
EXTD=
EXTT0=
EXTT1=
EXTT2=
EXTT3=
EXTT4=
EXTT5=
EXTT6=
EXTT7=
EXTT8=
EXTT9=
EXTT10=
EXTT11=
EXTT12=
EXTT13=
EXTT14=
EXTT15=
EXTT16=
EXTT17=
EXTT18=
EXTT19=
EXTT20=
EXTT21=
EXTT22=
EXTT23=
EXTT24=
PLAYORDER=
